<?xml version="1.0" encoding="UTF-8"?>
<svg id="Layer_1" xmlns="http://www.w3.org/2000/svg" version="1.1" viewBox="0 0 385.2 385.2">
  <!-- Generator: Adobe Illustrator 29.8.2, SVG Export Plug-In . SVG Version: 2.1.1 Build 3)  -->
  <path d="M192.7,276.8h0c42.7,0,78.1-31.6,85.4-73.3-1.3-19.9-7.1-34.6-18-46-8.4-8.7-20.4-15.9-36.9-22l5.5,38.6-94-74.5,117.5-17.2-24.2,32.1c20.8,7.3,35.7,16.2,46.9,27.9,1.6,1.7,3.2,3.5,4.6,5.3v-58.6C279.5,39.9,240.6,0,192.7,0h0C144.7,0,105.9,39.9,105.9,89.2v98.4c0,49.3,38.9,89.2,86.8,89.2Z"/>
  <path d="M300.2,178.4v9.2c0,29.5-11.2,57.3-31.5,78.2-20.3,20.9-47.3,32.4-76.1,32.4s-28.5-2.9-41.5-8.5c-18.2-7.4-33.7-19.4-43.8-34.8-2.7-3.5-5.1-7.2-7.3-11,0,0-17.5,9.5-17.3,9.9,16.9,36.1,55.2,61.1,98.8,64.7v45.4s-66,0-66,0v21.3s155.2,0,155.2,0v-21.3s-66,0-66,0v-45.5c24.1-2.2,46.8-11,65-25.5,23.4-18.6,37-44.3,38.2-72.4.6-14.4-2.1-28.7-7.9-42Z"/>
</svg>