<?xml version="1.0" encoding="UTF-8"?>
<svg id="Layer_1" data-name="Layer 1" xmlns="http://www.w3.org/2000/svg" xmlns:xlink="http://www.w3.org/1999/xlink" viewBox="0 0 1292.19 1209.43">
  <defs>
    <style>
      .cls-1, .cls-2, .cls-3, .cls-4, .cls-5, .cls-6, .cls-7 {
        fill: none;
      }

      .cls-2 {
        stroke-miterlimit: 10;
      }

      .cls-2, .cls-4 {
        stroke-width: 21.33px;
      }

      .cls-2, .cls-6, .cls-7 {
        stroke: #fff;
      }

      .cls-3, .cls-4, .cls-5 {
        stroke: #000;
      }

      .cls-3, .cls-4, .cls-5, .cls-6, .cls-7 {
        stroke-linejoin: round;
      }

      .cls-3, .cls-4, .cls-6 {
        stroke-linecap: round;
      }

      .cls-3, .cls-5, .cls-7 {
        stroke-width: 21.33px;
      }

      .cls-8 {
        fill: #fff;
      }

      .cls-6 {
        stroke-width: 21.33px;
      }

      .cls-9 {
        clip-path: url(#clippath);
      }
    </style>
    <clipPath id="clippath">
      <rect class="cls-1" x="1074.22" y="824.27" width="178.39" height="276.76" rx="89.19" ry="89.19"/>
    </clipPath>
  </defs>
  <line class="cls-3" x1="582.84" y1="502.88" x2="742.38" y2="502.89"/>
  <rect x="558.13" y="0" width="207.97" height="402.3" rx="89.2" ry="89.2"/>
  <line class="cls-4" x1="662.61" y1="391.99" x2="662.61" y2="502.88"/>
  <line class="cls-3" x1="64.55" y1="502.88" x2="224.09" y2="502.89"/>
  <rect x="54.63" y="1.56" width="178.39" height="345.07" rx="89.19" ry="89.19"/>
  <g>
    <path class="cls-3" d="M163.11,125.99c64.92,9.13,114.86,64.9,114.86,132.34,0,73.81-59.84,133.65-133.65,133.65S10.67,332.15,10.67,258.33"/>
    <polygon points="192.11 177.94 178.77 128.2 205.31 84.06 87.44 115.35 192.11 177.94"/>
  </g>
  <line class="cls-3" x1="144.32" y1="391.99" x2="144.32" y2="502.88"/>
  <line class="cls-5" x1="64.55" y1="1198.75" x2="224.09" y2="1198.77"/>
  <rect x="54.63" y="765.74" width="178.39" height="276.76" rx="89.19" ry="89.19"/>
  <path class="cls-5" d="M277.97,954.21c0,73.81-59.84,133.65-133.65,133.65S10.67,1028.02,10.67,954.21"/>
  <line class="cls-5" x1="144.32" y1="1087.86" x2="144.32" y2="1198.75"/>
  <line class="cls-3" x1="1068.09" y1="502.88" x2="1227.64" y2="502.89"/>
  <rect x="1058.18" y="1.56" width="178.39" height="345.07" rx="89.19" ry="89.19"/>
  <path class="cls-3" d="M1281.52,258.33c0,73.81-59.84,133.65-133.65,133.65s-133.65-59.84-133.65-133.65"/>
  <line class="cls-3" x1="1147.87" y1="391.99" x2="1147.87" y2="502.88"/>
  <g>
    <path class="cls-2" d="M679.99,132.43c61.11,39.15,86.12,80.1,86.12,153.1,0,83.63-39.93,116.76-89.2,116.76h-29.58c-49.26,0-89.2-39.93-89.2-89.2"/>
    <polygon class="cls-8" points="664.99 198.41 598.94 89.2 726.55 86.58 664.99 198.41"/>
  </g>
  <g>
    <line class="cls-6" x1="1247.94" y1="267.88" x2="1155.26" y2="175.19"/>
    <polygon class="cls-8" points="1203.87 148.59 1101.13 121.07 1128.66 223.81 1203.87 148.59"/>
  </g>
  <polygon class="cls-8" points="90.7 824.27 268.87 899.07 187.17 920.74 165.51 1002.43 90.7 824.27"/>
  <g>
    <path class="cls-3" d="M163.11,125.99c64.92,9.13,114.86,64.9,114.86,132.34,0,73.81-59.84,133.65-133.65,133.65S10.67,332.15,10.67,258.33"/>
    <polygon points="192.11 177.94 178.77 128.2 205.31 84.06 87.44 115.35 192.11 177.94"/>
  </g>
  <path d="M662.12,1101.03h0c43.84,0,80.28-31.62,87.78-73.3-1.31-19.89-7.27-34.63-18.49-45.96-8.66-8.74-20.94-15.89-37.89-21.96l5.6,38.61-96.58-74.47,120.74-17.21-24.9,32.13c21.41,7.35,36.67,16.24,48.2,27.88,1.67,1.69,3.24,3.46,4.74,5.26v-58.57c0-49.26-39.93-89.19-89.19-89.19h0c-49.26,0-89.19,39.93-89.19,89.19v98.37c0,49.26,39.93,89.19,89.19,89.19Z"/>
  <path d="M772.65,1002.65v9.18c0,29.52-11.5,57.28-32.37,78.16-20.88,20.88-48.63,32.37-78.16,32.37-14.89,0-29.33-2.93-42.66-8.5-18.75-7.35-34.6-19.44-45.06-34.76-2.73-3.54-5.22-7.22-7.48-11.03l-18.41,8.52c17.05,36.85,56.81,62.43,102.19,66.11v45.4s-67.85,0-67.85,0v21.33s159.54.01,159.54.01v-21.33s-67.8,0-67.8,0v-45.51c24.81-2.21,48.05-11,66.85-25.54,24.05-18.61,38.01-44.32,39.31-72.41.66-14.43-2.14-28.7-8.08-41.98Z"/>
  <line class="cls-5" x1="1084.13" y1="1198.75" x2="1243.68" y2="1198.77"/>
  <rect x="1074.22" y="824.27" width="178.39" height="276.76" rx="89.19" ry="89.19"/>
  <line class="cls-5" x1="1163.93" y1="1132.34" x2="1163.93" y2="1198.75"/>
  <g>
    <path class="cls-5" d="M1181.32,947.45c53,8.83,92.22,49.63,90.05,96.69-2.37,51.51-53.42,91-114.03,88.21-44.84-2.07-82.35-26.7-97.86-60.24"/>
    <polygon points="1209 1000.12 1196.92 950.05 1224.57 906.6 1105.94 934.9 1209 1000.12"/>
  </g>
  <g class="cls-9">
    <g>
      <path class="cls-7" d="M1177.73,943.43c54.27,14.3,84.41,36.91,84.41,93.07,0,51.56-64.24,97.59-126.99,88.51-46.43-6.72-83.08-35.14-96.01-70.15"/>
      <polygon class="cls-8" points="1200.42 998.43 1193.02 947.46 1224.57 906.75 1103.84 923.96 1200.42 998.43"/>
    </g>
  </g>
  <path class="cls-8" d="M1163.42,824.27c49.26,0,89.19,39.93,89.19,89.19v98.37c0,49.26-39.93,89.19-89.19,89.19h0c-49.26,0-89.19-39.93-89.19-89.19v-98.37c0-49.26,39.93-89.19,89.19-89.19h0M1163.42,802.93c-29.52,0-57.28,11.5-78.16,32.37-20.88,20.88-32.37,48.63-32.37,78.16v98.37c0,29.52,11.5,57.28,32.37,78.16,20.88,20.88,48.63,32.37,78.16,32.37s57.28-11.5,78.16-32.37c20.88-20.88,32.37-48.63,32.37-78.16v-98.37c0-29.52-11.5-57.28-32.37-78.16-20.88-20.88-48.63-32.37-78.16-32.37h0Z"/>
</svg>